<?xml version="1.0" encoding="utf-8"?>
<!-- Generator: Adobe Illustrator 24.2.0, SVG Export Plug-In . SVG Version: 6.00 Build 0)  -->
<!DOCTYPE svg PUBLIC "-//W3C//DTD SVG 1.1//EN" "http://www.w3.org/Graphics/SVG/1.1/DTD/svg11.dtd" [
	<!ENTITY ns_extend "http://ns.adobe.com/Extensibility/1.0/">
	<!ENTITY ns_ai "http://ns.adobe.com/AdobeIllustrator/10.0/">
	<!ENTITY ns_graphs "http://ns.adobe.com/Graphs/1.0/">
	<!ENTITY ns_vars "http://ns.adobe.com/Variables/1.0/">
	<!ENTITY ns_imrep "http://ns.adobe.com/ImageReplacement/1.0/">
	<!ENTITY ns_sfw "http://ns.adobe.com/SaveForWeb/1.0/">
	<!ENTITY ns_custom "http://ns.adobe.com/GenericCustomNamespace/1.0/">
	<!ENTITY ns_adobe_xpath "http://ns.adobe.com/XPath/1.0/">
]>
<svg version="1.1" id="Camada_1" xmlns:x="&ns_extend;" xmlns:i="&ns_ai;" xmlns:graph="&ns_graphs;"
	 xmlns="http://www.w3.org/2000/svg" xmlns:xlink="http://www.w3.org/1999/xlink" x="0px" y="0px" viewBox="0 0 373.9 85.5"
	 style="enable-background:new 0 0 373.9 85.5;" xml:space="preserve">
<style type="text/css">
	.st0{fill:#303030;}
	.st1{fill:#2563EB;}
</style>
<metadata>
	<sfw  xmlns="&ns_sfw;">
		<slices></slices>
		<sliceSourceBounds  bottomLeftOrigin="true" height="85.6" width="372.8" x="0" y="-0.1"></sliceSourceBounds>
	</sfw>
</metadata>
<g>
	<path class="st0" d="M109.9,23.2c0-0.4,0.3-0.8,0.8-0.8h19.1c14.3,0,24.1,8.6,24.1,21.9s-9.8,21.9-24.1,21.9h-19.1
		c-0.4,0-0.8-0.3-0.8-0.8V23.2z M129.3,57.9c8.7,0,14.4-5.2,14.4-13.6s-5.7-13.6-14.4-13.6h-8.5c-0.4,0-0.8,0.3-0.8,0.8v25.6
		c0,0.4,0.3,0.8,0.8,0.8H129.3z"/>
	<path class="st0" d="M195.4,58.9v6.6c0,0.4-0.3,0.8-0.8,0.8h-32.3c-0.4,0-0.8-0.3-0.8-0.8V23.2c0-0.4,0.3-0.8,0.8-0.8h31.5
		c0.4,0,0.8,0.3,0.8,0.8v6.6c0,0.4-0.3,0.8-0.8,0.8h-21.4c-0.4,0-0.8,0.3-0.8,0.8v7.9c0,0.4,0.3,0.8,0.8,0.8h18.8
		c0.4,0,0.8,0.3,0.8,0.8v6.3c0,0.4-0.3,0.8-0.8,0.8h-18.8c-0.4,0-0.8,0.3-0.8,0.8v8.6c0,0.4,0.3,0.8,0.8,0.8h22.3
		C195.1,58.1,195.4,58.4,195.4,58.9z"/>
	<path class="st0" d="M200.3,61.3l2.8-6.2c0.2-0.4,0.7-0.6,1.2-0.3c3.7,2.4,8.8,4,13.7,4c6,0,8.4-2,8.4-4.7
		c0-8.2-25.4-2.6-25.4-18.8c0-7.4,6-13.6,18.4-13.6c5.2,0,10.6,1.2,14.6,3.5c0.3,0.2,0.5,0.6,0.3,1l-2.5,6.3
		c-0.2,0.4-0.7,0.6-1.1,0.4c-3.8-2-7.7-3-11.4-3c-6,0-8.3,2.3-8.3,5c0,8.1,25.4,2.5,25.4,18.6c0,7.3-6.1,13.6-18.6,13.6
		c-6.6,0-13.3-1.9-17.3-4.7C200.3,62.1,200.2,61.7,200.3,61.3z"/>
	<path class="st0" d="M244.2,22.5h8.6c0.4,0,0.8,0.3,0.8,0.8v42.2c0,0.4-0.3,0.8-0.8,0.8h-8.6c-0.4,0-0.8-0.3-0.8-0.8V23.2
		C243.4,22.8,243.7,22.5,244.2,22.5z"/>
	<path class="st0" d="M294.3,43.6h7.7c0.4,0,0.8,0.3,0.8,0.8V61c0,0.3-0.1,0.5-0.3,0.6c-4.8,3.5-11.3,5.3-17.4,5.3
		c-13.8,0-23.9-9.4-23.9-22.6s10.1-22.6,24.1-22.6c7.4,0,13.6,2.4,17.8,7c0.3,0.3,0.3,0.8-0.1,1.1l-5.4,5c-0.3,0.3-0.8,0.3-1.1,0
		c-3.1-3-6.6-4.4-10.8-4.4c-8.5,0-14.3,5.7-14.3,14c0,8.2,5.8,14,14.2,14c2.6,0,5-0.4,7.4-1.7c0.3-0.1,0.4-0.4,0.4-0.7V44.4
		C293.5,44,293.8,43.6,294.3,43.6z"/>
	<path class="st0" d="M352.2,23.2v42.2c0,0.4-0.3,0.8-0.8,0.8h-7.2c-0.2,0-0.5-0.1-0.6-0.3l-20.2-24.6c-0.5-0.6-1.4-0.2-1.4,0.5
		v23.6c0,0.4-0.3,0.8-0.8,0.8h-8.4c-0.4,0-0.8-0.3-0.8-0.8V23.2c0-0.4,0.3-0.8,0.8-0.8h7.2c0.2,0,0.5,0.1,0.6,0.3l20.1,24.6
		c0.5,0.6,1.4,0.2,1.4-0.5V23.2c0-0.4,0.3-0.8,0.8-0.8h8.4C351.9,22.5,352.2,22.8,352.2,23.2z"/>
	<path class="st0" d="M363.4,22.5h8.6c0.4,0,0.8,0.3,0.8,0.8v42.2c0,0.4-0.3,0.8-0.8,0.8h-8.6c-0.4,0-0.8-0.3-0.8-0.8V23.2
		C362.6,22.8,363,22.5,363.4,22.5z"/>
</g>
<path class="st1" d="M55.9,0h18c0.1,0,0.2,0.1,0.2,0.2s0.1,0.3,0.1,0.4c0,16.7,0,33.4-0.1,50.1c0,2.2-0.5,4.4-1,6.5
	c-0.7,2.7-1.6,5.3-2.8,7.9c-1.5,3.2-3.5,6.1-5.9,8.7s-5,4.8-8,6.6c-2.6,1.5-5.3,2.7-8.2,3.6c-4.2,1.3-8.5,1.8-12.9,1.5
	c-10.8-0.6-19.7-4.8-26.7-13.1c-3.2-3.8-5.4-8.1-6.8-12.8C0,53.9-0.5,48.1,0.5,42.2c1.6-10.1,6.4-18.3,14.7-24.3
	c4.2-3,8.9-5,14.1-5.8c1.9-0.3,3.7-0.5,5.6-0.5c4.2-0.1,8.4,0,12.5,0c0.8,0,1,0.2,1,1c0,5.3,0,10.6,0,15.9c0,0.7-0.2,1-1,1
	c-3.2,0-6.3,0-9.5,0c-3.8,0-7.4,0.8-10.6,2.9c-4,2.6-6.8,6.1-7.9,10.8c-1.6,6.5-0.4,12.5,3.9,17.7c4.4,5.3,10.1,7.7,17,6.4
	c6.5-1.2,10.8-5.1,13.6-10.9c1.4-3,1.9-6.1,1.9-9.4c0-15.2,0-30.4,0-45.6c0-0.4,0-0.8,0-1.2C55.7,0.1,55.8,0,55.9,0z"/>
</svg>
